<svg width='200' height='200' fill="#FFFFFF" xmlns="http://www.w3.org/2000/svg" xmlns:xlink="http://www.w3.org/1999/xlink" version="1.1" x="0px" y="0px" viewBox="0 0 100 100" enable-background="new 0 0 100 100" xml:space="preserve"><path d="M46.1,40.8c-5.1,0-9.3,4.2-9.3,9.3c0,5.1,4.2,9.3,9.3,9.3s9.3-4.2,9.3-9.3C55.5,45,51.3,40.8,46.1,40.8z M46.1,57.1  c-3.8,0-6.9-3.1-6.9-6.9s3.1-6.9,6.9-6.9s6.9,3.1,6.9,6.9S50,57.1,46.1,57.1z M46.1,48.3c-1,0-1.9,0.8-1.9,1.9c0,1,0.8,1.9,1.9,1.9  c1,0,1.9-0.8,1.9-1.9C48,49.1,47.2,48.3,46.1,48.3z M81.9,12.7H19.1c-7.2,0-13,5.8-13,13v48.6c0,7.2,5.8,13,13,13h62.9  c7.2,0,13-5.8,13-13V25.7C94.9,18.5,89.1,12.7,81.9,12.7z M92.5,74.3c0,5.8-4.8,10.6-10.6,10.6H19.1c-5.8,0-10.6-4.8-10.6-10.6V25.7  c0-5.8,4.8-10.6,10.6-10.6h62.9c5.8,0,10.6,4.8,10.6,10.6V74.3z M80.4,19.5c-4.2,0-7.6,3.4-7.6,7.6c0,3.8,2.8,6.9,6.4,7.5v7.5  L74.2,47c-1.5-14.1-13.6-25.2-28.1-25.2c-15.6,0-28.3,12.7-28.3,28.3c0,15.6,12.7,28.3,28.3,28.3c15.5,0,28.2-12.6,28.3-28.2  l6.8-6.8c0.2-0.2,0.4-0.5,0.4-0.8v-8c3.6-0.6,6.4-3.7,6.4-7.5C87.9,22.9,84.5,19.5,80.4,19.5z M59.5,62.3L59.5,62.3  c-0.2,0.2-0.3,0.4-0.3,0.7c0,0,0,0.1,0,0.1c-3.4,3.5-8.1,5.5-13.1,5.5c-10.2,0-18.4-8.3-18.4-18.4c0-10.2,8.3-18.4,18.4-18.4  c0.2,0,0.4-0.2,0.4-0.4s-0.2-0.4-0.4-0.4c-10.6,0-19.2,8.6-19.2,19.2s8.6,19.2,19.2,19.2c5.1,0,10-2,13.5-5.6  c0.1,0.1,0.3,0.1,0.4,0.1c0.3,0,0.5-0.1,0.7-0.3c0.7,0.5,1.6,0.5,2.3-0.1l5.2-4.3c0.8-0.7,0.9-2,0.1-2.8l-0.1-0.1l3.6-3.6  C70.6,65.8,59.5,76,46.1,76c-14.3,0-25.9-11.6-25.9-25.9s11.6-25.9,25.9-25.9c14,0,25.4,11.1,25.9,25l-5.4,5.4l-0.2-0.2  c-0.8-0.8-2.1-0.7-2.8,0.1l-4.3,5.2C58.7,60.6,58.8,61.7,59.5,62.3z M85.1,65.5h-2.5c-0.2-1.2-1.2-2.1-2.4-2.1  c-1.4,0-2.5,1.1-2.5,2.5c0,1.4,1.1,2.5,2.5,2.5c1.2,0,2.3-0.9,2.4-2.1h2.5c0.2,0,0.4-0.2,0.4-0.4C85.5,65.6,85.3,65.5,85.1,65.5z   M83.4,72.1l-1.8,1.8c-0.4-0.3-0.9-0.5-1.4-0.5c-1.4,0-2.5,1.1-2.5,2.5c0,1.4,1.1,2.5,2.5,2.5s2.5-1.1,2.5-2.5c0-0.5-0.2-1-0.5-1.4  l1.8-1.8c0.2-0.2,0.2-0.4,0-0.6S83.6,72,83.4,72.1z"/></svg>
